<svg width="32" height="32" viewBox="0 0 32 32" fill="none" xmlns="http://www.w3.org/2000/svg">
<g clip-path="url(#clip0_9235_898)">
<path d="M11.9997 28C13.4724 28 14.6663 26.8061 14.6663 25.3333C14.6663 23.8605 13.4724 22.6666 11.9997 22.6666C10.5269 22.6666 9.33301 23.8605 9.33301 25.3333C9.33301 26.8061 10.5269 28 11.9997 28Z" stroke="#0D0D0D" stroke-width="1.5" stroke-linecap="round" stroke-linejoin="round"/>
<path d="M22.6667 28C24.1394 28 25.3333 26.8061 25.3333 25.3333C25.3333 23.8605 24.1394 22.6666 22.6667 22.6666C21.1939 22.6666 20 23.8605 20 25.3333C20 26.8061 21.1939 28 22.6667 28Z" stroke="#0D0D0D" stroke-width="1.5" stroke-linecap="round" stroke-linejoin="round"/>
<path d="M4 4H6.66667L9.33333 20C9.62096 20.818 10.1666 21.5203 10.888 22.0013C11.6095 22.4822 12.4677 22.7158 13.3333 22.6667H22.6667C23.5323 22.7158 24.3905 22.4822 25.112 22.0013C25.8334 21.5203 26.379 20.818 26.6667 20L28 10.6667H7.73333" stroke="#0D0D0D" stroke-width="1.5" stroke-linecap="round" stroke-linejoin="round"/>
</g>
<defs>
<clipPath id="clip0_9235_898">
<rect width="32" height="32" fill="white"/>
</clipPath>
</defs>
</svg>
