<svg width="46" height="46" viewBox="0 0 46 46" fill="none" xmlns="http://www.w3.org/2000/svg">
<g id="4. Elements / Logo">
<g id="Group">
<g id="Group_2">
<g id="container id1">
<g id="id1">
<g id="Group_3">
<g id="Group_4">
<g id="Group_5">
<g id="id4">
<g id="Group_6">
<path id="Vector" fill-rule="evenodd" clip-rule="evenodd" d="M18.4235 16.7372L18.4158 16.7279L18.408 16.7201L18.4003 16.7139L18.3941 16.7093L18.3863 16.7046L18.3801 16.7015L18.3739 16.7H18.3708H18.3678H18.3647H18.3616L18.3585 16.7015H18.3554L18.3523 16.7031L18.3492 16.7046L18.343 16.7093L18.3383 16.7139L18.3321 16.7201L18.3275 16.7279L18.3228 16.7372L18.2423 26.9819L18.25 27.1925L18.2609 27.2901L18.2748 27.3815L18.295 27.4667L18.3182 27.5472L18.3461 27.6215L18.377 27.6912L18.4142 27.7532L18.4545 27.812L18.4978 27.8647L18.5474 27.9112L18.6001 27.9514L18.6574 27.987L18.7193 28.0165L18.7859 28.0412L18.9578 28.0955L19.1948 28.1589L19.8685 28.3123L19.8747 28.3231L19.8824 28.334L19.887 28.3479L19.8932 28.3618L19.8979 28.3789L19.9025 28.3975L19.9103 28.4377L19.9149 28.4857L19.918 28.5399V28.6003V28.6685L19.9103 28.797L19.9056 28.8512L19.8994 28.8992L19.8932 28.9411L19.8855 28.9767L19.8777 29.0045L19.8731 29.0154L19.8685 29.0262L17.2 28.9519L15.5955 28.9891L14.5533 29.0262L14.5378 28.9937L14.5254 28.9565L14.5145 28.9163L14.5052 28.8714L14.496 28.8233L14.4898 28.7722L14.482 28.6561L14.4805 28.5972L14.482 28.543L14.4851 28.4919L14.4898 28.447L14.4975 28.4067L14.5068 28.3711L14.513 28.3541L14.5192 28.3386L14.5254 28.3247L14.5331 28.3123L15.2285 28.2008L15.4686 28.1543L15.6358 28.1156L15.7411 28.0769L15.8371 28.0335L15.9254 27.9855L16.0029 27.9328L16.04 27.905L16.0726 27.8771L16.1035 27.8477L16.133 27.8167L16.1593 27.7857L16.1841 27.7516L16.2073 27.7191L16.2274 27.6835L16.263 27.6061L16.2956 27.5162L16.325 27.414L16.3498 27.2994L16.3715 27.1709L16.39 27.0299L16.4179 26.7109L16.5774 21.12L16.6378 15.6778L16.6285 15.4904L16.6177 15.4037L16.6022 15.3216L16.5821 15.2426L16.5588 15.1699L16.5294 15.1017L16.4969 15.0382L16.4597 14.9778L16.4179 14.9236L16.3715 14.874L16.3219 14.8291L16.2661 14.7873L16.2073 14.7517L16.1438 14.7192L16.0772 14.6928L15.9579 14.6665L15.7009 14.6123L14.7732 14.4218L14.7654 14.411L14.7577 14.4001L14.7515 14.3862L14.7453 14.3723L14.7407 14.3552L14.736 14.3366L14.7267 14.2948L14.7205 14.2468L14.7159 14.1926L14.7128 14.1322V14.0641V13.9975L14.7159 13.9371L14.7205 13.8844L14.7267 13.8395L14.736 13.8023L14.7407 13.7853L14.7453 13.7714L14.7515 13.759L14.7577 13.7481L14.7654 13.7404L14.7685 13.7357L14.7732 13.7326L16.1376 13.7698L18.3228 13.8054L18.3259 13.8147L18.3352 13.8349L18.3724 13.9015L18.5118 14.1431L19.0074 14.984L20.5344 17.5425L22.1373 20.2311L23.0542 21.8015L23.4553 22.486L23.5993 22.7307L24.6524 24.5226L24.8615 24.885L24.9513 25.0538L25.0319 25.2195L25.1016 25.3836L25.1604 25.5509L25.2115 25.7228L25.2518 25.9025L25.2766 26.0728L25.2921 26.2354L25.2983 26.3919L25.2967 26.5436L25.2859 26.6954L25.2657 26.8456L25.241 26.9974L25.2084 27.1523L25.1883 27.2266L25.1635 27.2994L25.1047 27.4465L25.0319 27.5875L24.9498 27.7222L24.86 27.8477L24.7686 27.9607L24.6772 28.0614L24.5905 28.145L24.5611 28.1667L24.5285 28.1853L24.4929 28.2023L24.4527 28.2178L24.4093 28.2302L24.3644 28.241L24.2684 28.2581L24.1661 28.2689L24.0639 28.2751L23.8703 28.2782V26.9649L23.9524 26.9231L24.0268 26.8735L24.0949 26.8162L24.1553 26.7512L24.208 26.6815L24.2513 26.6056L24.2885 26.5251L24.3148 26.4399L24.3334 26.3516L24.3443 26.2602V26.1657L24.335 26.0697L24.3164 25.9722L24.2885 25.8746L24.2498 25.777L24.2018 25.6795L24.1723 25.6299L24.1553 25.6036L22.9551 23.7141L21.0331 20.7669L19.2381 18.0195L18.6543 17.1166L18.4886 16.8518L18.4421 16.7743L18.4235 16.7372ZM23.8703 28.2797V26.9649V28.2797ZM23.7666 15.1404L23.7681 20.307L23.1378 21.3833L22.5013 20.307L22.5292 15.1404L22.5137 14.6836L22.5059 14.5287L22.4966 14.4234L22.478 14.2623L22.4657 14.1895L22.4533 14.1229L22.4362 14.061L22.4192 14.0068L22.3991 13.9557L22.3774 13.9123L22.365 13.8922L22.3511 13.872L22.3356 13.8534L22.3185 13.8364L22.3015 13.8194L22.2814 13.8023L22.2597 13.7868L22.238 13.7714L22.1884 13.7435L22.1327 13.7187L22.0707 13.697L22.0041 13.6784L21.9391 13.6568L21.8694 13.6382L21.7904 13.618L21.7037 13.601L21.5085 13.5685L21.2855 13.5406L21.2824 13.5375L21.2793 13.536L21.2747 13.5298L21.27 13.5205L21.2669 13.5112L21.2623 13.5019L21.2592 13.4895L21.253 13.4601L21.2484 13.426L21.2437 13.3857L21.2422 13.3408V13.2897V13.2386L21.2453 13.1921L21.2499 13.1519L21.2561 13.1178L21.2592 13.1023L21.2639 13.0899L21.2685 13.0775L21.2747 13.0667L21.2793 13.0574L21.2855 13.0497L21.2917 13.0435L21.2948 13.0404L21.2995 13.0388L22.1451 13.0636L23.2586 13.0899L24.3024 13.0636L25.0768 13.0388L25.0783 13.0404L25.0799 13.0419L25.0814 13.0435L25.0845 13.0466L25.0876 13.0512L25.0907 13.0574L25.0938 13.0636L25.0985 13.0713L25.1016 13.0806L25.1047 13.0899V13.5406L24.8244 13.584L24.5936 13.6273L24.4093 13.6691L24.335 13.6908L24.273 13.7125L24.2018 13.7357L24.1367 13.7636L24.0794 13.7946L24.0531 13.8116L24.0283 13.8302L24.0035 13.8488L23.9819 13.8689L23.9617 13.8891L23.9431 13.9107L23.9261 13.934L23.9106 13.9572L23.8967 13.982L23.8858 14.0068L23.8641 14.0625L23.844 14.1245L23.827 14.1926L23.813 14.267L23.8007 14.349L23.7914 14.4358L23.7805 14.6309L23.7666 15.1404ZM23.7697 28.6995L23.7805 29.1021L23.7914 29.2973L23.8007 29.384L23.813 29.4661L23.827 29.5404L23.844 29.6085L23.8641 29.6705L23.8858 29.7262L23.8967 29.751L23.9106 29.7758L23.9261 29.799L23.9431 29.8223L23.9617 29.844L23.9819 29.8641L24.0035 29.8842L24.0283 29.9028L24.0531 29.9214L24.0794 29.9384L24.1367 29.9694L24.2018 29.9973L24.273 30.0205L24.335 30.0422L24.4093 30.0639L24.5936 30.1072L24.8244 30.149L25.1047 30.1924V30.6431L25.1016 30.6524L25.0985 30.6617L25.0938 30.6694L25.0907 30.6756L25.0876 30.6818L25.0845 30.688L25.0799 30.6926L25.0783 30.6942L25.0768 30.6957L24.3024 30.6694L23.2586 30.6431L22.1451 30.6694L21.2995 30.6957L21.2948 30.6926L21.2917 30.6911L21.2855 30.6849L21.2793 30.6756L21.2747 30.6663L21.2685 30.6555L21.2639 30.6446L21.2592 30.6307L21.2561 30.6152L21.2499 30.5811L21.2453 30.5409L21.2422 30.4944V30.4433V30.3922L21.2437 30.3473L21.2484 30.307L21.253 30.2729L21.2592 30.2435L21.2623 30.2311L21.2669 30.2218L21.27 30.2125L21.2747 30.2033L21.2793 30.1971L21.2824 30.1955L21.2855 30.1924L21.5085 30.1645L21.7037 30.132L21.7904 30.115L21.8694 30.0948L21.9391 30.0763L22.0041 30.0546L22.0707 30.036L22.1327 30.0143L22.1884 29.9895L22.238 29.9617L22.2597 29.9462L22.2814 29.9307L22.3015 29.9136L22.3185 29.8966L22.3356 29.8796L22.3511 29.861L22.365 29.8409L22.3774 29.8207L22.3991 29.7774L22.4192 29.7262L22.4362 29.672L22.4533 29.6101L22.4657 29.5435L22.478 29.4707L22.4966 29.3096L22.5028 29.2338L22.5106 29.13L22.523 28.8342L22.5524 25.5974L23.1378 24.5226L23.7681 25.5974V28.4888L23.7697 28.6995ZM23.3159 21.6853L25.7319 17.5626L27.0669 15.1621L27.5005 14.2933L27.626 13.9944L27.6616 13.886L27.6786 13.8054L29.8639 13.7698L31.2283 13.7326L31.2314 13.7357L31.2345 13.7404L31.2422 13.7481L31.2484 13.759L31.2546 13.7714L31.2593 13.7853L31.2639 13.8023L31.2732 13.8395L31.2794 13.8844L31.2841 13.9371L31.2872 13.9975L31.2887 14.0641L31.2872 14.1322L31.2841 14.1926L31.2794 14.2468L31.2732 14.2948L31.2639 14.3366L31.2593 14.3552L31.2546 14.3723L31.2484 14.3862L31.2422 14.4001L31.2345 14.411L31.2283 14.4218L30.2991 14.6123L30.042 14.6665L29.9243 14.6928L29.8561 14.7192L29.7926 14.7517L29.7338 14.7873L29.678 14.8291L29.6285 14.874L29.582 14.9236L29.5402 14.9778L29.503 15.0382L29.4705 15.1017L29.4426 15.1699L29.4179 15.2426L29.3977 15.3216L29.3822 15.4037L29.3714 15.4904L29.3636 15.6778L29.424 21.12L29.5836 26.7109L29.6099 27.0299L29.6285 27.1709L29.6502 27.2994L29.6765 27.414L29.7044 27.5162L29.7369 27.6061L29.7741 27.6835L29.7926 27.7191L29.8159 27.7516L29.8407 27.7857L29.867 27.8167L29.8964 27.8477L29.9274 27.8771L29.9615 27.905L29.9971 27.9328L30.0745 27.9855L30.1628 28.0335L30.2588 28.0769L30.3657 28.1156L30.5314 28.1543L30.7714 28.2008L31.4684 28.3123L31.4745 28.3247L31.4823 28.3386L31.4885 28.3541L31.4931 28.3711L31.5024 28.4067L31.5102 28.447L31.5164 28.4919L31.5195 28.543V28.5972V28.6561L31.5102 28.7722L31.504 28.8233L31.4947 28.8714L31.4854 28.9163L31.4745 28.9565L31.4622 28.9937L31.4482 29.0262L30.4059 28.9891L28.8015 28.9519L26.133 29.0262L26.1268 29.0154L26.1222 29.0045L26.1144 28.9767L26.1067 28.9411L26.1005 28.8992L26.0943 28.8512L26.0897 28.797L26.0835 28.6685L26.0819 28.6003V28.5399L26.085 28.4857L26.0897 28.4377L26.0974 28.3975L26.102 28.3789L26.1067 28.3618L26.1129 28.3479L26.1191 28.334L26.1253 28.3231L26.133 28.3123L26.8052 28.1589L27.0421 28.0955L27.2156 28.0412L27.2806 28.0165L27.3426 27.987L27.3999 27.9514L27.4525 27.9112L27.5021 27.8647L27.5455 27.812L27.5857 27.7532L27.6229 27.6912L27.6539 27.6215L27.6817 27.5472L27.705 27.4667L27.7251 27.3815L27.739 27.2901L27.7499 27.1925L27.7592 26.9819L27.6786 16.7372L27.6724 16.7279L27.6678 16.7201L27.6616 16.7139L27.657 16.7093L27.6508 16.7046L27.6477 16.7031L27.6446 16.7015H27.6415L27.6384 16.7H27.6353H27.6322H27.6291H27.626L27.6198 16.7015L27.6136 16.7046L27.6059 16.7093L27.5997 16.7139L27.5919 16.7201L27.5842 16.7279L27.578 16.7372L23.8858 22.6564L23.3159 21.6853ZM22.3944 28.2782V26.9649L22.3077 26.92L22.2303 26.8642L22.1621 26.8007L22.1033 26.7264L22.0521 26.6459L22.0119 26.5591L21.9809 26.4662L21.9577 26.3686L21.9453 26.268L21.9437 26.1627L21.9515 26.0573L21.9685 25.9505L21.9964 25.8436L22.0351 25.7368L22.0847 25.633L22.1451 25.5308L22.9427 24.1942L22.3743 23.2263L21.6448 24.4436L21.2979 25.1188L21.2189 25.2923L21.1492 25.4673L21.0919 25.6454L21.0486 25.8281L21.0223 25.9985L21.0068 26.1611L21.0006 26.3175L21.0037 26.4708L21.0145 26.6211L21.0331 26.7713L21.0594 26.9231L21.0935 27.0779L21.1121 27.1523L21.1369 27.2266L21.1957 27.3722L21.2685 27.5147L21.3506 27.6494L21.4389 27.7749L21.5302 27.8879L21.6216 27.9886L21.7099 28.0722L21.7362 28.0955L21.7687 28.1156L21.8028 28.1373L21.84 28.1559L21.9236 28.1915L22.0134 28.2209L22.1079 28.2457L22.2055 28.2627L22.3015 28.2751L22.3944 28.2782Z" fill="url(#paint0_linear_9235_46)"/>
</g>
</g>
</g>
<g id="Group_7">
<g id="id5">
<g id="Group_8">
<path id="Vector_2" fill-rule="evenodd" clip-rule="evenodd" d="M25.413 40.7284L25.7832 40.6742L26.1409 40.6386L26.3113 40.6277L26.4739 40.6231L26.6272 40.6246L26.7681 40.6324L26.9927 40.6649L27.2188 40.7176L27.4418 40.7888L27.6649 40.8755L27.8832 40.9778L28.0954 41.0924L28.2998 41.2194L28.495 41.3541L28.6746 41.4997L28.845 41.6499L29.0045 41.8032L29.1485 41.9581L29.2771 42.1145L29.387 42.2694L29.4784 42.4227L29.5156 42.497L29.5481 42.5714L29.1919 42.6968L28.8063 42.8083L28.4005 42.9044L27.9808 42.9864L27.5533 43.0515L27.1274 43.0979L26.7093 43.1243L26.3066 43.132L26.1254 43.1243L25.9427 43.0964L25.7599 43.0499L25.5787 42.9864L25.3991 42.9075L25.2225 42.8145L25.0506 42.7061L24.8849 42.5869L24.7238 42.4552L24.5721 42.3127L24.428 42.1625L24.2948 42.003L24.1725 41.8373L24.0625 41.6654L23.9665 41.4904L23.8844 41.3107L23.8488 41.2348L23.8116 41.1682L23.7729 41.1109L23.7327 41.0598L23.5886 40.8957L23.5607 40.857L23.5391 40.8151L23.5298 40.795L23.5236 40.7718L23.5174 40.7485L23.5143 40.7222L23.5158 40.668L23.5251 40.6045L23.5453 40.5317L23.5762 40.4481L23.79 39.951L24.0331 39.4306L24.2995 38.9288L24.4373 38.698L24.5783 38.4874L24.7393 38.283L24.919 38.0832L25.3263 37.6945L25.7754 37.329L26.2493 36.9929L26.7232 36.6909L27.177 36.4307L27.589 36.217L27.939 36.0575L27.3272 37.3321L26.9633 38.0336L26.5405 38.7584L26.4507 38.8932L26.3515 39.0295L26.2431 39.1642L26.1254 39.2989L26 39.4321L25.8683 39.5638L25.5834 39.8209L25.2581 40.0826L24.9623 40.2932L24.6572 40.4884L24.3088 40.699L23.7358 41.0443L24.2205 40.9592L25.413 40.7284ZM29.4242 39.1596L29.7525 39.0388L30.0716 38.935L30.2249 38.8932L30.3705 38.856L30.5098 38.8281L30.6399 38.808L30.849 38.7941L31.0627 38.7987L31.2796 38.8204L31.4948 38.8576L31.7101 38.9071L31.9223 38.9706L32.1298 39.0465L32.3296 39.1317L32.517 39.2293L32.6966 39.333L32.867 39.4414L33.0234 39.5545L33.1659 39.6722L33.2929 39.7914L33.4013 39.9122L33.4478 39.9726L33.4896 40.0346L33.186 40.2173L32.8531 40.3939L32.4999 40.5596L32.1314 40.7145L31.7535 40.8554L31.374 40.9809L30.9977 41.0862L30.6322 41.1713L30.4665 41.1992L30.2961 41.2085L30.1227 41.2023L29.9477 41.1806L29.7711 41.1435L29.5946 41.0924L29.4211 41.0273L29.2492 40.9499L29.0819 40.8616L28.9193 40.7625L28.7644 40.6525L28.6173 40.5348L28.4779 40.4078L28.3509 40.2731L28.2332 40.1322L28.1295 39.985L28.0846 39.9231L28.0396 39.8689L27.9947 39.824L27.9498 39.7852L27.7918 39.6629L27.7609 39.6335L27.733 39.6009L27.7222 39.5824L27.7113 39.5638L27.7036 39.5421L27.6958 39.5204L27.6881 39.4693L27.6865 39.4104L27.6927 39.3408L27.7067 39.2587L27.8182 38.7662L27.9545 38.2443L28.114 37.7363L28.2023 37.4993L28.2952 37.281L28.4082 37.0641L28.5383 36.8473L28.8434 36.4152L29.1919 35.9955L29.5667 35.5991L29.9477 35.232L30.3163 34.9083L30.657 34.6342L30.9481 34.4205L30.6028 35.6982L30.389 36.4075L30.1242 37.1478L30.0654 37.2887L29.9972 37.4312L29.9198 37.5752L29.8362 37.7192L29.7432 37.8648L29.6441 38.0104L29.4273 38.3L29.1748 38.602L28.941 38.8514L28.6963 39.0868L28.4144 39.3454L27.9514 39.7698L28.3773 39.5978L29.4242 39.1596ZM32.9274 37.4374L33.2247 37.2469L33.5175 37.0734L33.6584 36.9975L33.7962 36.9294L33.9263 36.8706L34.0502 36.8225L34.2515 36.7621L34.4622 36.7172L34.6759 36.6894L34.8958 36.677H35.1157L35.3356 36.6925L35.5525 36.7188L35.7646 36.7575L35.9675 36.8102L36.1627 36.8721L36.3485 36.9402L36.5235 37.0161L36.6861 37.0982L36.8333 37.1865L36.9618 37.281L37.0191 37.329L37.0718 37.3801L36.81 37.6263L36.5189 37.8741L36.2045 38.1157L35.8746 38.3511L35.5323 38.5741L35.1839 38.7817L34.837 38.9691L34.4962 39.1348L34.3398 39.1983L34.1741 39.2463L34.0037 39.2788L33.8272 39.2974L33.6475 39.3005L33.4663 39.2896L33.2836 39.2664L33.1008 39.2293L32.9196 39.1797L32.7431 39.1193L32.5696 39.048L32.4024 38.9644L32.2429 38.8715L32.0911 38.7693L31.9502 38.6578L31.8201 38.537L31.7643 38.4859L31.7101 38.444L31.6559 38.41L31.6063 38.3821L31.4267 38.2985L31.3911 38.2768L31.3585 38.2505L31.3431 38.235L31.3307 38.2195L31.3183 38.2009L31.3074 38.1808L31.2966 38.1575L31.2888 38.1328L31.2749 38.0755L31.2672 38.0058L31.2656 37.9221L31.2811 37.4142L31.3152 36.8752L31.3725 36.3409L31.4127 36.09L31.4623 35.8546L31.5304 35.6176L31.6172 35.376L31.8324 34.8851L32.0926 34.3973L32.3822 33.9233L32.6842 33.4804L32.9847 33.0793L33.2635 32.7355L33.5082 32.4614L33.4168 33.7871L33.3424 34.5289L33.2263 35.3125L33.1953 35.4628L33.1551 35.6176L33.1086 35.7772L33.0528 35.9382L32.9909 36.1008L32.9227 36.265L32.7663 36.5964L32.5774 36.948L32.3962 37.2453L32.2026 37.5303L31.9749 37.8478L31.6032 38.3666L31.9873 38.1033L32.9274 37.4374ZM35.8297 34.7147L36.0914 34.5041L36.3501 34.3121L36.5963 34.1479L36.7125 34.0798L36.824 34.0209L37.0083 33.9435L37.2003 33.88L37.3985 33.832L37.6014 33.7963L37.8074 33.7747L38.0149 33.7654L38.2194 33.7669L38.4207 33.7809L38.6143 33.8103L38.8032 33.8475L38.9829 33.8924L39.1548 33.9435L39.3128 34.0039L39.4583 34.0705L39.5869 34.1448L39.6457 34.1851L39.6984 34.2269L39.4754 34.4855L39.226 34.7457L38.9535 35.0059L38.6654 35.2599L38.3665 35.5046L38.0598 35.7353L37.7516 35.946L37.4481 36.1365L37.3072 36.2123L37.1569 36.2743L37.0005 36.3223L36.8379 36.3579L36.6691 36.3796L36.4987 36.3889L36.3253 36.3858L36.1518 36.3703L35.9784 36.344L35.808 36.3053L35.6392 36.2557L35.4766 36.1953L35.3186 36.1256L35.1668 36.0451L35.0259 35.9553L34.8927 35.8561L34.8354 35.8143L34.7812 35.7803L34.7285 35.7539L34.679 35.7338L34.5055 35.6749L34.4684 35.6579L34.4358 35.6362L34.4219 35.6238L34.4064 35.6099L34.394 35.5944L34.3816 35.5758L34.3708 35.5557L34.36 35.534L34.3429 35.4814L34.3305 35.4163L34.3212 35.3389L34.2903 34.8619L34.2732 34.3539L34.2794 33.8506L34.2949 33.6121L34.3197 33.3875L34.3631 33.1583L34.4219 32.9229L34.5799 32.4428L34.7797 31.958L35.0089 31.4857L35.252 31.0396L35.4952 30.6339L35.7259 30.2823L35.9304 30.0004L35.9629 31.2503L35.9598 31.9518L35.9195 32.6968L35.904 32.8408L35.8808 32.9895L35.8514 33.1428L35.8142 33.2977L35.7708 33.4572L35.7213 33.6182L35.6051 33.945L35.4595 34.2935L35.3171 34.5893L35.1606 34.8758L34.9763 35.1964L34.6759 35.7199L35.0104 35.4333L35.4193 35.0725L35.6237 34.8913L35.8297 34.7147ZM38.3138 31.4686L38.5229 31.1992L38.732 30.9467L38.938 30.7252L39.0355 30.6292L39.1316 30.544L39.2942 30.4217L39.4676 30.3117L39.6504 30.2142L39.8409 30.129L40.036 30.0562L40.2342 29.9958L40.434 29.9462L40.6338 29.9091L40.8289 29.8874L41.0194 29.875L41.2037 29.8734L41.3818 29.8812L41.5491 29.8998L41.704 29.9292L41.7768 29.9478L41.8465 29.9695L41.9115 29.9927L41.9719 30.0206L41.8108 30.3272L41.6234 30.6447L41.4144 30.9653L41.1898 31.2843L40.9497 31.5972L40.702 31.8992L40.448 32.1826L40.194 32.4443L40.0732 32.5543L39.94 32.6518L39.7975 32.7386L39.6473 32.8129L39.4878 32.8764L39.3236 32.9291L39.1548 32.9693L38.9829 32.9988L38.8079 33.0158L38.6329 33.022L38.4594 33.0158L38.2875 32.9988L38.1187 32.9709L37.9561 32.9306L37.7981 32.8795L37.6479 32.816L37.5844 32.7897L37.524 32.7711L37.4667 32.7587L37.414 32.751L37.2313 32.737L37.1926 32.7293L37.1569 32.7169L37.1399 32.7091L37.1229 32.6983L37.1058 32.6875L37.0903 32.672L37.0749 32.6565L37.0609 32.6364L37.033 32.5899L37.0052 32.531L36.9804 32.4567L36.8472 32.0014L36.7217 31.512L36.6195 31.0195L36.5839 30.7825L36.5607 30.558L36.5529 30.3241L36.5591 30.081L36.6087 29.5745L36.7001 29.0526L36.8209 28.5369L36.9603 28.0413L37.1105 27.5844L37.2592 27.1849L37.397 26.8596L37.6974 28.0676L37.8446 28.7506L37.9669 29.4847L37.9824 29.6287L37.9932 29.779L37.9963 29.9354L37.9932 30.0965L37.9716 30.4294L37.9297 30.7764L37.8632 31.1511L37.7873 31.4764L37.6974 31.7939L37.5875 32.1516L37.4078 32.7386L37.6727 32.3746L38.3138 31.4686ZM39.957 27.3088L40.0933 26.9882L40.2342 26.6862L40.3783 26.4121L40.4495 26.2913L40.5208 26.1829L40.6478 26.0187L40.7887 25.8638L40.9405 25.7182L41.1031 25.5819L41.2734 25.455L41.45 25.3403L41.6312 25.235L41.8155 25.1421L41.9982 25.0662L42.1794 24.9996L42.3575 24.9454L42.5294 24.9021L42.6952 24.8711L42.8531 24.8556L42.9275 24.8525H42.9987L43.0684 24.8571L43.1334 24.8664L43.0529 25.2087L42.9491 25.568L42.8268 25.9366L42.6859 26.3098L42.531 26.68L42.3653 27.0424L42.1903 27.3878L42.0075 27.713L41.9177 27.8539L41.8139 27.9856L41.6978 28.1095L41.5708 28.2256L41.4329 28.3309L41.2874 28.4285L41.134 28.5152L40.9761 28.5927L40.8119 28.6593L40.6447 28.715L40.4758 28.7599L40.3055 28.7924L40.1367 28.8126L39.9694 28.8203L39.8037 28.8157L39.6442 28.7986L39.576 28.7909H39.5125L39.4552 28.794L39.4026 28.8017L39.2229 28.8405L39.1842 28.8451L39.1455 28.8435L39.1269 28.8405L39.1083 28.8358L39.0897 28.8281L39.0712 28.8203L39.0526 28.8079L39.034 28.794L38.9953 28.7568L38.955 28.7073L38.9132 28.6438L38.6747 28.2426L38.4331 27.8059L38.2147 27.3599L38.1218 27.1431L38.0444 26.9324L37.9809 26.7094L37.9267 26.4725L37.8508 25.9691L37.812 25.4395L37.8028 24.9067L37.8167 24.3894L37.8508 23.9062L37.8957 23.4772L37.9499 23.1241L38.5337 24.2051L38.8419 24.82L39.1393 25.4937L39.1904 25.6284L39.2353 25.7709L39.2771 25.9196L39.3143 26.076L39.3468 26.2386L39.3747 26.4043L39.4181 26.7512L39.4459 27.1322L39.4521 27.4667L39.4428 27.7997L39.4243 28.1761L39.3933 28.7924L39.559 28.3665L39.957 27.3088ZM40.5564 22.5914L40.5982 22.2429L40.6524 21.9084L40.7143 21.6017L40.75 21.4639L40.7887 21.3369L40.8661 21.1402L40.9575 20.9466L41.0644 20.7577L41.1836 20.5765L41.3121 20.4015L41.45 20.2342L41.594 20.0778L41.7442 19.9307L41.8976 19.8006L42.054 19.6798L42.2089 19.5698L42.3637 19.4738L42.514 19.3933L42.6595 19.3267L42.7989 19.2787L42.8655 19.2616L42.9306 19.2492L42.946 19.6024L42.9445 19.9787L42.9275 20.3705L42.8949 20.7716L42.8469 21.1743L42.7865 21.5723L42.7122 21.958L42.6255 22.3265L42.5774 22.4892L42.514 22.6487L42.4365 22.8051L42.3467 22.9569L42.2445 23.1025L42.1314 23.2418L42.0091 23.3735L41.8774 23.4974L41.738 23.6135L41.594 23.7188L41.4438 23.8164L41.2905 23.9016L41.134 23.9744L40.9761 24.0348L40.8166 24.0828L40.6586 24.1169L40.592 24.1308L40.5316 24.1509L40.4774 24.1726L40.4278 24.1974L40.2683 24.2903L40.2311 24.3074L40.1955 24.3166L40.1769 24.3197L40.1584 24.3213H40.1382L40.1181 24.3182L40.0964 24.312L40.0747 24.3058L40.0283 24.2826L39.9756 24.247L39.9183 24.2005L39.5807 23.8923L39.2322 23.5516L39.0634 23.375L38.9023 23.1954L38.7552 23.0157L38.6236 22.8392L38.5012 22.6456L38.3866 22.4365L38.1791 21.9781L37.9979 21.4856L37.8446 20.9792L37.7176 20.4789L37.62 20.0066L37.5488 19.5822L37.5039 19.2276L38.3541 20.0763L38.8156 20.5657L39.2818 21.1154L39.367 21.227L39.449 21.3493L39.5296 21.4794L39.607 21.6172L39.6829 21.7613L39.7541 21.913L39.8889 22.2305L40.019 22.5852L40.115 22.9042L40.1971 23.2248L40.2807 23.5903L40.4185 24.1897L40.4619 23.7312L40.5564 22.5914ZM40.098 17.9003L40.0515 17.5518L40.019 17.2142L40.0035 16.9014V16.7574L40.0081 16.6242L40.0329 16.412L40.0732 16.1998L40.1289 15.9876L40.1971 15.777L40.2776 15.571L40.369 15.3697L40.4681 15.1761L40.575 14.9903L40.6911 14.8184L40.8104 14.6573L40.9327 14.5071L41.0566 14.3692L41.1805 14.2469L41.3044 14.14L41.4268 14.0533L41.4872 14.0177L41.546 13.9867L41.6498 14.3212L41.7427 14.6836L41.8232 15.0662L41.8929 15.4611L41.9487 15.8622L41.9889 16.2633L42.0153 16.6582L42.0246 17.0377L42.0199 17.208L41.9982 17.3799L41.9626 17.5518L41.9146 17.7238L41.8526 17.8941L41.7783 18.0614L41.6931 18.224L41.5971 18.382L41.4934 18.5337L41.3803 18.6793L41.261 18.8156L41.134 18.9426L41.0009 19.0588L40.8646 19.1641L40.7236 19.257L40.5796 19.336L40.5192 19.37L40.465 19.4057L40.4201 19.4444L40.3783 19.4816L40.2482 19.6194L40.2172 19.6457L40.1847 19.6658L40.1661 19.6736L40.1491 19.6813L40.1289 19.686L40.1088 19.6891L40.0871 19.6906L40.0639 19.6891L40.0128 19.6813L39.9555 19.6628L39.8873 19.6333L39.4862 19.4366L39.065 19.2105L38.859 19.0897L38.6592 18.9643L38.4718 18.8357L38.3014 18.7041L38.1357 18.5539L37.9731 18.3866L37.6572 18.0072L37.3598 17.5859L37.0841 17.1445L36.8379 16.7001L36.6242 16.2742L36.4492 15.887L36.3175 15.5586L37.3474 16.1255L37.9158 16.4616L38.207 16.6489L38.5028 16.8534L38.6127 16.937L38.7211 17.0299L38.8311 17.1306L38.9411 17.2406L39.0495 17.3583L39.1563 17.4822L39.367 17.7485L39.5807 18.0521L39.7526 18.3293L39.9106 18.6143L40.084 18.941L40.3659 19.4785L40.2931 19.0231L40.098 17.9003ZM38.2798 13.3177L38.1636 13.0172L38.0629 12.7229L37.9809 12.4457L37.9499 12.3172L37.9251 12.1964L37.9019 11.9997L37.8926 11.7984L37.8972 11.5939L37.9127 11.3895L37.9406 11.1835L37.9793 10.9806L38.0273 10.7824L38.0831 10.5888L38.1497 10.4061L38.2225 10.2311L38.2999 10.0653L38.3804 9.91202L38.4656 9.76954L38.5539 9.64409L38.6453 9.53414L38.6917 9.48767L38.7382 9.44431L38.9023 9.71843L39.0634 10.0204L39.2183 10.3426L39.3654 10.6802L39.5017 11.0271L39.624 11.3756L39.7325 11.7225L39.8223 12.0601L39.8548 12.215L39.8718 12.3745L39.878 12.5371L39.8703 12.7044L39.8517 12.8716L39.8207 13.0404L39.7789 13.2077L39.7278 13.3734L39.6674 13.536L39.5962 13.694L39.5187 13.8473L39.432 13.9929L39.3391 14.1307L39.2384 14.2593L39.1316 14.377L39.02 14.4838L38.972 14.5303L38.9333 14.5752L38.8992 14.6201L38.8714 14.665L38.7831 14.8215L38.7614 14.8524L38.7366 14.8803L38.7227 14.8912L38.7072 14.902L38.6917 14.9113L38.6747 14.919L38.6545 14.9252L38.6344 14.9299L38.5864 14.9361L38.5307 14.9345L38.4641 14.9252L38.0614 14.8493L37.6355 14.7533L37.4233 14.696L37.2173 14.6341L37.0222 14.5659L36.841 14.4916L36.6598 14.3987L36.4786 14.2887L36.1147 14.0285L35.7569 13.7265L35.4162 13.3982L35.1002 13.0621L34.8168 12.7338L34.5768 12.4318L34.3878 12.1701L35.4332 12.4178L36.014 12.5774L36.316 12.6718L36.6242 12.7802L36.7403 12.8283L36.8596 12.884L36.9788 12.9475L37.1012 13.0172L37.222 13.0946L37.3459 13.1798L37.4682 13.2696L37.5906 13.3657L37.8477 13.584L38.0614 13.79L38.2658 14.0053L38.4904 14.2546L38.859 14.665L38.6964 14.2748L38.2798 13.3177ZM35.698 9.70604L35.4983 9.46135L35.3155 9.2182L35.1575 8.98434L35.0894 8.87283L35.0321 8.76597L34.9516 8.58787L34.8834 8.40202L34.8261 8.20688L34.7812 8.00555L34.7471 7.80267L34.7224 7.59669L34.7084 7.39226L34.7053 7.18938L34.7146 6.99269L34.7316 6.8022L34.7549 6.6179L34.7874 6.44444L34.8261 6.28028L34.8726 6.13005L34.9252 5.99532L34.9562 5.93492L34.9872 5.87761L35.2241 6.08049L35.4657 6.30971L35.7089 6.56215L35.9474 6.83007L36.1782 7.11194L36.3981 7.4L36.6025 7.69116L36.7883 7.98077L36.8642 8.11551L36.9277 8.26109L36.9819 8.41441L37.0238 8.57393L37.0547 8.73964L37.0764 8.91L37.0857 9.08191L37.0872 9.25692L37.0764 9.43192L37.0578 9.60693L37.0284 9.77883L36.9897 9.94609L36.9417 10.1087L36.8844 10.2651L36.8193 10.4154L36.745 10.5547L36.714 10.6151L36.6892 10.6724L36.6706 10.7266L36.6567 10.7778L36.6195 10.9559L36.6087 10.993L36.5932 11.0271L36.5839 11.0426L36.5731 11.0581L36.5607 11.072L36.5452 11.086L36.5297 11.0983L36.5111 11.1107L36.4678 11.1324L36.4136 11.1494L36.3485 11.1649L35.9443 11.2331L35.5122 11.2888L35.2954 11.309L35.0817 11.3214L34.8772 11.3245L34.6836 11.3167L34.4854 11.2919L34.2794 11.2501L33.8582 11.1293L33.4292 10.9667L33.0095 10.7747L32.6099 10.5656L32.2444 10.3534L31.9269 10.149L31.6714 9.96778L32.7354 9.84078L33.3332 9.78967L33.6475 9.77574L33.9712 9.77109L34.0951 9.77574L34.2237 9.78658L34.3569 9.80516L34.4931 9.82994L34.6325 9.86246L34.7735 9.89963L34.9159 9.943L35.06 9.99101L35.3682 10.1087L35.6315 10.228L35.8885 10.3627L36.1766 10.5207L36.6459 10.7809L36.3764 10.468L35.698 9.70604ZM32.7199 7.36593L32.5015 7.18473L32.2986 7.00043L32.119 6.81923L32.04 6.7325L31.9703 6.64733L31.8696 6.50329L31.7798 6.34842L31.6977 6.18426L31.6249 6.01235L31.5614 5.8358L31.5072 5.65615L31.4623 5.47495L31.4267 5.29375L31.4035 5.11564L31.388 4.94064L31.3802 4.77183V4.60921L31.3895 4.45589L31.4066 4.31186L31.4344 4.18022L31.4499 4.12137L31.47 4.06406L31.7147 4.2019L31.9687 4.36297L32.2274 4.54417L32.4845 4.73931L32.7369 4.94838L32.98 5.16675L33.2108 5.38977L33.423 5.61433L33.5128 5.72119L33.5933 5.83889L33.6661 5.96744L33.7296 6.10218L33.7838 6.24621L33.8287 6.39488L33.8659 6.54821L33.8953 6.70463L33.9139 6.8626L33.9232 7.02366L33.9248 7.18318L33.917 7.34115L33.9 7.49602L33.8737 7.6478L33.8396 7.79338L33.7947 7.93276L33.7761 7.99161L33.7637 8.04891L33.756 8.10002L33.7513 8.14958L33.7467 8.31684L33.742 8.35246L33.7343 8.38499L33.7281 8.40202L33.7203 8.41751L33.711 8.433L33.7018 8.44694L33.6878 8.46242L33.6739 8.47636L33.6383 8.50269L33.5933 8.52902L33.536 8.55535L33.1845 8.69163L32.8066 8.82327L32.6146 8.88213L32.4256 8.93323L32.2413 8.9735L32.0663 9.00293L31.8836 9.01686L31.6931 9.01841L31.295 8.98899L30.8846 8.92239L30.4773 8.82947L30.0855 8.71641L29.7231 8.59406L29.4056 8.47017L29.147 8.35556L30.0824 8.04272L30.6105 7.88475L30.8908 7.81196L31.1804 7.74846L31.2919 7.72988L31.4096 7.71594L31.532 7.7082L31.6574 7.7051L31.7875 7.70665L31.9207 7.71439L32.0555 7.72523L32.1933 7.74227L32.4891 7.79028L32.7446 7.84913L32.9955 7.92037L33.279 8.0102L33.742 8.15578L33.4493 7.92502L32.7199 7.36593ZM29.5032 5.66389L29.3189 5.50902L29.147 5.3526L28.9936 5.19927L28.9271 5.12494L28.8682 5.05369L28.783 4.93135L28.7056 4.79971L28.6359 4.66187L28.5755 4.51629L28.5213 4.36606L28.4748 4.21274L28.4361 4.05942L28.4067 3.90609L28.3881 3.75587L28.3742 3.60719L28.368 3.46471V3.32687L28.3757 3.19678L28.3912 3.07443L28.4129 2.96447L28.4268 2.91337L28.4439 2.86536L28.6514 2.98151L28.8667 3.1178L29.085 3.27112L29.3034 3.43683L29.5171 3.61494L29.7231 3.79923L29.9182 3.98818L30.0979 4.17867L30.1738 4.27004L30.2419 4.36916L30.3039 4.47757L30.3581 4.59218L30.4045 4.71298L30.4432 4.83842L30.4742 4.96852L30.4975 5.10171L30.5145 5.23644L30.5238 5.37273V5.50747L30.5176 5.64221L30.5036 5.77385L30.482 5.90239L30.451 6.02629L30.4138 6.14399L30.3983 6.1951L30.3875 6.24156L30.3813 6.28647L30.3782 6.32674L30.3736 6.46922L30.3705 6.49865L30.3627 6.52807L30.3581 6.54046L30.3519 6.5544L30.3441 6.56679L30.3348 6.57918L30.324 6.59157L30.3116 6.60396L30.2822 6.62719L30.2435 6.64887L30.1955 6.67056L29.8966 6.78671L29.576 6.89822L29.4134 6.94778L29.2523 6.98959L29.0974 7.02521L28.9487 7.04999L28.7939 7.06238L28.6328 7.06393L28.2952 7.03915L27.9483 6.98185L27.6014 6.90286L27.2699 6.80684L26.9633 6.70308L26.6954 6.59777L26.4754 6.5002L27.2668 6.23537L27.7144 6.10218L27.9514 6.04023L28.1976 5.98602L28.2921 5.97054L28.3927 5.95815L28.4965 5.95195L28.6034 5.94885L28.7133 5.95195L28.8248 5.95815L29.0556 5.98138L29.3065 6.02164L29.4164 6.04642L29.5233 6.07275L29.737 6.13315L29.9771 6.20904L30.3689 6.33139L30.1211 6.13625L29.5032 5.66389ZM20.5826 40.7284L20.2124 40.6742L19.8547 40.6386L19.6843 40.6277L19.5217 40.6231L19.3699 40.6246L19.2274 40.6324L19.0029 40.6649L18.7783 40.7176L18.5537 40.7888L18.3323 40.8755L18.1139 40.9778L17.9017 41.0924L17.6973 41.2194L17.5022 41.3541L17.3225 41.4997L17.1522 41.6499L16.9926 41.8032L16.8486 41.9581L16.7201 42.1145L16.6086 42.2694L16.5172 42.4227L16.48 42.497L16.4475 42.5714L16.8037 42.6968L17.1893 42.8083L17.5966 42.9044L18.0163 42.9864L18.4438 43.0515L18.8697 43.0979L19.2878 43.1243L19.6905 43.132L19.8717 43.1243L20.0529 43.0964L20.2357 43.0499L20.4184 42.9864L20.5965 42.9075L20.7731 42.8145L20.9465 42.7061L21.1122 42.5869L21.2717 42.4552L21.4251 42.3127L21.5675 42.1625L21.7023 42.003L21.8246 41.8373L21.9346 41.6654L22.0306 41.4904L22.1127 41.3107L22.1483 41.2348L22.1855 41.1682L22.2242 41.1109L22.2645 41.0598L22.4085 40.8957L22.4364 40.857L22.4581 40.8151L22.4658 40.795L22.4735 40.7718L22.4782 40.7485L22.4813 40.7222V40.668L22.472 40.6045L22.4519 40.5317L22.4209 40.4481L22.2072 39.951L21.9625 39.4306L21.6961 38.9288L21.5583 38.698L21.4173 38.4874L21.2563 38.283L21.0766 38.0832L20.6708 37.6945L20.2202 37.329L19.7478 36.9929L19.2739 36.6909L18.8201 36.4307L18.4066 36.217L18.0566 36.0575L18.6683 37.3321L19.0323 38.0336L19.4551 38.7584L19.5449 38.8932L19.644 39.0295L19.754 39.1642L19.8717 39.2989L19.9971 39.4321L20.1288 39.5638L20.4138 39.8209L20.739 40.0826L21.0348 40.2932L21.3399 40.4884L21.6883 40.699L22.2598 41.0443L21.7766 40.9592L20.5826 40.7284ZM16.5729 39.1596L16.2446 39.0388L15.9256 38.935L15.7722 38.8932L15.6267 38.856L15.4873 38.8281L15.3572 38.808L15.1466 38.7941L14.9328 38.7987L14.7176 38.8204L14.5007 38.8576L14.2855 38.9071L14.0733 38.9706L13.8673 39.0465L13.6675 39.1317L13.4801 39.2293L13.2989 39.333L13.1301 39.4414L12.9737 39.5545L12.8297 39.6722L12.7042 39.7914L12.5958 39.9122L12.5494 39.9726L12.5076 40.0346L12.8111 40.2173L13.1425 40.3939L13.4972 40.5596L13.8658 40.7145L14.2421 40.8554L14.6231 40.9809L14.9979 41.0862L15.3634 41.1713L15.5291 41.1992L15.6995 41.2085L15.8729 41.2023L16.0495 41.1806L16.2245 41.1435L16.401 41.0924L16.576 41.0273L16.7464 40.9499L16.9137 40.8616L17.0763 40.7625L17.2311 40.6525L17.3798 40.5348L17.5177 40.4078L17.6462 40.2731L17.7639 40.1322L17.8677 39.985L17.9126 39.9231L17.9575 39.8689L18.0024 39.824L18.0473 39.7852L18.2053 39.6629L18.2363 39.6335L18.2641 39.6009L18.275 39.5824L18.2858 39.5638L18.2936 39.5421L18.3013 39.5204L18.309 39.4693L18.3106 39.4104L18.3044 39.3408L18.2905 39.2587L18.1774 38.7662L18.0411 38.2443L17.8831 37.7363L17.7949 37.4993L17.7019 37.281L17.5889 37.0641L17.4588 36.8473L17.1537 36.4152L16.8052 35.9955L16.4305 35.5991L16.0495 35.232L15.6793 34.9083L15.3386 34.6342L15.0474 34.4205L15.3944 35.6982L15.6081 36.4075L15.8729 37.1478L15.9318 37.2887L15.9999 37.4312L16.0773 37.5752L16.161 37.7192L16.2539 37.8648L16.353 38.0104L16.5698 38.3L16.8207 38.602L17.0561 38.8514L17.3008 39.0868L17.5827 39.3454L18.0458 39.7698L17.6199 39.5978L16.5729 39.1596ZM13.0697 37.4374L12.7724 37.2469L12.4781 37.0734L12.3372 36.9975L12.2009 36.9294L12.0708 36.8706L11.9469 36.8225L11.744 36.7621L11.535 36.7172L11.3197 36.6894L11.1013 36.677H10.8814L10.6615 36.6925L10.4447 36.7188L10.2325 36.7575L10.0296 36.8102L9.83446 36.8721L9.64862 36.9402L9.47206 37.0161L9.311 37.0982L9.16387 37.1865L9.03533 37.281L8.97802 37.329L8.92537 37.3801L9.1871 37.6263L9.47826 37.8741L9.7911 38.1157L10.1225 38.3511L10.4648 38.5741L10.8117 38.7817L11.1586 38.9691L11.4993 39.1348L11.6558 39.1983L11.8215 39.2463L11.9918 39.2788L12.1684 39.2974L12.348 39.3005L12.5292 39.2896L12.712 39.2664L12.8947 39.2293L13.0759 39.1797L13.254 39.1193L13.4259 39.048L13.5932 38.9644L13.7543 38.8715L13.9045 38.7693L14.047 38.6578L14.1771 38.537L14.2328 38.4859L14.287 38.444L14.3397 38.41L14.3908 38.3821L14.5689 38.2985L14.6061 38.2768L14.6386 38.2505L14.6525 38.235L14.6665 38.2195L14.6789 38.2009L14.6897 38.1808L14.699 38.1575L14.7083 38.1328L14.7207 38.0755L14.7284 38.0058L14.73 37.9221L14.7145 37.4142L14.6819 36.8752L14.6246 36.3409L14.5844 36.09L14.5348 35.8546L14.4667 35.6176L14.3799 35.376L14.1647 34.8851L13.9045 34.3973L13.6133 33.9233L13.3113 33.4804L13.0124 33.0793L12.7321 32.7355L12.4874 32.4614L12.5803 33.7871L12.6547 34.5289L12.7708 35.3125L12.8018 35.4628L12.8421 35.6176L12.8885 35.7772L12.9443 35.9382L13.0062 36.1008L13.0744 36.265L13.2308 36.5964L13.4197 36.948L13.6009 37.2453L13.7945 37.5303L14.0206 37.8478L14.3923 38.3666L14.0098 38.1033L13.0697 37.4374ZM10.1659 34.7147L9.90416 34.5041L9.64707 34.3121L9.52162 34.2253L9.39927 34.1479L9.28312 34.0798L9.17161 34.0209L8.98886 33.9435L8.79682 33.88L8.59859 33.832L8.39416 33.7963L8.18818 33.7747L7.9822 33.7654L7.77622 33.7669L7.57488 33.7809L7.38129 33.8103L7.1939 33.8475L7.0127 33.8924L6.84234 33.9435L6.68282 34.0039L6.53724 34.0705L6.4087 34.1448L6.34985 34.1851L6.29719 34.2269L6.52021 34.4855L6.76955 34.7457L7.04213 35.0059L7.33019 35.2599L7.63064 35.5046L7.93728 35.7353L8.24393 35.946L8.54903 36.1365L8.68996 36.2123L8.84019 36.2743L8.99661 36.3223L9.15922 36.3579L9.32648 36.3796L9.49839 36.3889L9.6703 36.3858L9.8453 36.3703L10.0172 36.344L10.1891 36.3053L10.3579 36.2557L10.5205 36.1953L10.6785 36.1256L10.8303 36.0451L10.9712 35.9553L11.1044 35.8561L11.1617 35.8143L11.2159 35.7803L11.2686 35.7539L11.3181 35.7338L11.4931 35.6749L11.5288 35.6579L11.5613 35.6362L11.5752 35.6238L11.5907 35.6099L11.6031 35.5944L11.6155 35.5758L11.6263 35.5557L11.6372 35.534L11.6542 35.4814L11.6666 35.4163L11.6759 35.3389L11.7069 34.8619L11.7239 34.3539L11.7177 33.8506L11.7022 33.6121L11.6774 33.3875L11.6341 33.1583L11.5752 32.9229L11.4173 32.4428L11.2175 31.958L10.9883 31.4857L10.7451 31.0396L10.5004 30.6339L10.2697 30.2823L10.0652 30.0004L10.0342 31.2503L10.0373 31.9518L10.0761 32.6968L10.0916 32.8408L10.1148 32.9895L10.1442 33.1428L10.1814 33.2977L10.2247 33.4572L10.2758 33.6182L10.392 33.945L10.5376 34.2935L10.6801 34.5893L10.8365 34.8758L11.0192 35.1964L11.3212 35.7199L10.9867 35.4333L10.1659 34.7147ZM7.68175 31.4686L7.47267 31.1992L7.26359 30.9467L7.05916 30.7252L6.96004 30.6292L6.86557 30.544L6.70296 30.4217L6.5295 30.3117L6.34675 30.2142L6.15626 30.129L5.96112 30.0562L5.76289 29.9958L5.5631 29.9462L5.36332 29.9091L5.16818 29.8874L4.97769 29.875L4.79184 29.8734L4.61529 29.8812L4.44802 29.8998L4.29315 29.9292L4.22036 29.9478L4.15067 29.9695L4.08562 29.9927L4.02522 30.0206L4.18629 30.3272L4.37369 30.6447L4.58121 30.9653L4.80733 31.2843L5.04583 31.5972L5.29362 31.8992L5.54761 32.1826L5.80315 32.4443L5.92395 32.5543L6.05559 32.6518L6.19807 32.7386L6.34985 32.8129L6.50782 32.8764L6.67198 32.9291L6.84079 32.9693L7.01425 32.9988L7.18771 33.0158L7.36271 33.022L7.53617 33.0158L7.70807 32.9988L7.87688 32.9709L8.04105 32.9306L8.19902 32.8795L8.34924 32.816L8.41274 32.7897L8.47314 32.7711L8.53044 32.7587L8.5831 32.751L8.76585 32.737L8.80457 32.7293L8.84019 32.7169L8.85722 32.7091L8.87426 32.6983L8.89129 32.6875L8.90678 32.672L8.92227 32.6565L8.93621 32.6364L8.96408 32.5899L8.99196 32.531L9.01674 32.4567L9.14838 32.0014L9.27383 31.512L9.37604 31.0195L9.41321 30.7825L9.43644 30.558L9.44419 30.3241L9.43799 30.081L9.38688 29.5745L9.29706 29.0526L9.17626 28.5369L9.03533 28.0413L8.8851 27.5844L8.73642 27.1849L8.59859 26.8596L8.29968 28.0676L8.15101 28.7506L8.02866 29.4847L8.01317 29.6287L8.00388 29.779L7.99923 29.9354L8.00233 30.0965L8.01007 30.2606L8.02401 30.4294L8.06738 30.7764L8.13397 31.1511L8.20986 31.4764L8.29968 31.7939L8.40964 32.1516L8.58929 32.7386L8.32446 32.3746L7.68175 31.4686ZM6.03856 27.3088L5.90382 26.9882L5.76289 26.6862L5.61885 26.4121L5.54761 26.2913L5.47637 26.1829L5.34938 26.0187L5.20844 25.8638L5.05667 25.7182L4.89405 25.5819L4.72215 25.455L4.54559 25.3403L4.36439 25.235L4.18164 25.1421L3.9989 25.0662L3.8177 24.9996L3.63959 24.9454L3.46769 24.9021L3.30197 24.8711L3.144 24.8556L3.06967 24.8525H2.99842L2.93028 24.8571L2.86523 24.8664L2.94577 25.2087L3.04798 25.568L3.17033 25.9366L3.31127 26.3098L3.46459 26.68L3.6303 27.0424L3.80531 27.3878L3.98805 27.713L4.07788 27.8539L4.18164 27.9856L4.2978 28.1095L4.42479 28.2256L4.56263 28.3309L4.70821 28.4285L4.86153 28.5152L5.02105 28.5927L5.18521 28.6593L5.35247 28.715L5.52129 28.7599L5.69164 28.7924L5.86045 28.8126L6.02772 28.8203L6.19343 28.8157L6.35295 28.7986L6.42109 28.7909H6.48459L6.54189 28.794L6.59455 28.8017L6.7742 28.8405L6.81292 28.8451L6.85163 28.8435L6.87022 28.8405L6.8888 28.8358L6.90739 28.8281L6.92597 28.8203L6.94456 28.8079L6.96314 28.794L7.00186 28.7568L7.04213 28.7073L7.08394 28.6438L7.32244 28.2426L7.56404 27.8059L7.78241 27.3599L7.87534 27.1431L7.95277 26.9324L8.01627 26.7094L8.07047 26.4725L8.14481 25.9691L8.18508 25.4395L8.19437 24.9067L8.18043 24.3894L8.14636 23.9062L8.0999 23.4772L8.04724 23.1241L7.46338 24.2051L7.15363 24.82L6.85628 25.4937L6.80672 25.6284L6.76026 25.7709L6.71844 25.9196L6.68282 26.076L6.6503 26.2386L6.62242 26.4043L6.57906 26.7512L6.55118 27.1322L6.54499 27.4667L6.55428 27.7997L6.57286 28.1761L6.60384 28.7924L6.43658 28.3665L6.03856 27.3088ZM5.44075 22.5914L5.39739 22.2429L5.34473 21.9084L5.28123 21.6017L5.24561 21.4639L5.2069 21.3369L5.13101 21.1402L5.03809 20.9466L4.93122 20.7577L4.81352 20.5765L4.68498 20.4015L4.54714 20.2342L4.40311 20.0778L4.25289 19.9307L4.09801 19.8006L3.94314 19.6798L3.78672 19.5698L3.6334 19.4738L3.48317 19.3933L3.33759 19.3267L3.19821 19.2787L3.13161 19.2616L3.06657 19.2492L3.05108 19.6024L3.05263 19.9787L3.06967 20.3705L3.10219 20.7716L3.14865 21.1743L3.2106 21.5723L3.28339 21.958L3.37012 22.3265L3.41813 22.4892L3.48162 22.6487L3.55906 22.8051L3.65043 22.9569L3.75265 23.1025L3.86571 23.2418L3.98805 23.3735L4.1197 23.4974L4.25908 23.6135L4.40311 23.7188L4.55334 23.8164L4.70666 23.9016L4.86308 23.9744L5.02105 24.0348L5.18057 24.0828L5.33854 24.1169L5.40513 24.1308L5.46553 24.1509L5.51974 24.1726L5.56775 24.1974L5.72881 24.2903L5.76443 24.3074L5.8016 24.3166L5.82019 24.3197L5.83877 24.3213H5.85891L5.87904 24.3182L5.89917 24.312L5.92085 24.3058L5.96886 24.2826L6.01997 24.247L6.07727 24.2005L6.4149 23.8923L6.76336 23.5516L6.93217 23.375L7.09323 23.1954L7.24036 23.0157L7.372 22.8392L7.49435 22.6456L7.60896 22.4365L7.81803 21.9781L7.99923 21.4856L8.15256 20.9792L8.278 20.4789L8.37712 20.0066L8.44836 19.5822L8.49327 19.2276L7.64303 20.0763L7.18151 20.5657L6.7138 21.1154L6.63017 21.227L6.54654 21.3493L6.46755 21.4794L6.39012 21.6172L6.31423 21.7613L6.24144 21.913L6.1067 22.2305L5.97816 22.5852L5.88214 22.9042L5.80005 23.2248L5.71642 23.5903L5.57859 24.1897L5.53522 23.7312L5.44075 22.5914ZM5.89917 17.9003L5.94563 17.5518L5.97816 17.2142L5.99364 16.9014V16.7574L5.98745 16.6242L5.96267 16.412L5.9224 16.1998L5.8682 15.9876L5.80005 15.777L5.71952 15.571L5.62815 15.3697L5.52748 15.1761L5.42062 14.9903L5.30601 14.8184L5.18676 14.6573L5.06441 14.5071L4.94052 14.3692L4.81662 14.2469L4.69272 14.14L4.57037 14.0533L4.50997 14.0177L4.45112 13.9867L4.34736 14.3212L4.25443 14.6836L4.17235 15.0662L4.10421 15.4611L4.04845 15.8622L4.00664 16.2633L3.98031 16.6582L3.97102 17.0377L3.97721 17.208L3.99735 17.3799L4.03297 17.5518L4.08253 17.7238L4.14448 17.8941L4.21881 18.0614L4.30399 18.224L4.39846 18.382L4.50378 18.5337L4.61683 18.6793L4.73609 18.8156L4.86308 18.9426L4.99472 19.0588L5.13256 19.1641L5.27194 19.257L5.41597 19.336L5.47792 19.37L5.53058 19.4057L5.57704 19.4444L5.61731 19.4816L5.74895 19.6194L5.77992 19.6457L5.81244 19.6658L5.82948 19.6736L5.84806 19.6813L5.86665 19.686L5.88678 19.6891L5.90846 19.6906L5.9317 19.6891L5.9828 19.6813L6.04011 19.6628L6.10825 19.6333L6.51092 19.4366L6.93217 19.2105L7.13815 19.0897L7.33793 18.9643L7.52533 18.8357L7.69568 18.7041L7.8614 18.5539L8.02401 18.3866L8.33995 18.0072L8.6373 17.5859L8.91143 17.1445L9.15767 16.7001L9.3714 16.2742L9.54795 15.887L9.67959 15.5586L8.64969 16.1255L8.08132 16.4616L7.78861 16.6489L7.4928 16.8534L7.38284 16.937L7.27443 17.0299L7.16447 17.1306L7.05452 17.2406L6.94611 17.3583L6.83924 17.4822L6.63017 17.7485L6.41644 18.0521L6.24454 18.3293L6.08657 18.6143L5.91311 18.941L5.6297 19.4785L5.70249 19.0231L5.89917 17.9003ZM7.71582 13.3177L7.83197 13.0172L7.93419 12.7229L8.01627 12.4457L8.04724 12.3172L8.07047 12.1964L8.09371 11.9997L8.103 11.7984L8.0999 11.5939L8.08286 11.3895L8.05654 11.1835L8.01782 10.9806L7.96981 10.7824L7.91405 10.5888L7.84746 10.4061L7.77467 10.2311L7.69723 10.0653L7.6167 9.91202L7.53152 9.76954L7.44324 9.64409L7.35187 9.53414L7.30541 9.48767L7.25895 9.44431L7.09478 9.71843L6.93372 10.0204L6.77884 10.3426L6.63172 10.6802L6.49543 11.0271L6.37308 11.3756L6.26467 11.7225L6.17484 12.0601L6.14232 12.215L6.12528 12.3745L6.11909 12.5371L6.12683 12.7044L6.14542 12.8716L6.17639 13.0404L6.21821 13.2077L6.26932 13.3734L6.32972 13.536L6.39941 13.694L6.47839 13.8473L6.56512 13.9929L6.65804 14.1307L6.75716 14.2593L6.86402 14.377L6.97553 14.4838L7.02354 14.5303L7.06381 14.5752L7.09633 14.6201L7.12576 14.665L7.21403 14.8215L7.23572 14.8524L7.2605 14.8803L7.27443 14.8912L7.28837 14.902L7.30541 14.9113L7.32244 14.919L7.34103 14.9252L7.36271 14.9299L7.40917 14.9361L7.46647 14.9345L7.53307 14.9252L7.93574 14.8493L8.36163 14.7533L8.57226 14.696L8.77824 14.6341L8.97338 14.5659L9.15458 14.4916L9.33578 14.3987L9.51698 14.2887L9.88247 14.0285L10.2387 13.7265L10.5809 13.3982L10.8969 13.0621L11.1803 12.7338L11.4204 12.4318L11.6093 12.1701L10.5639 12.4178L9.98159 12.5774L9.67959 12.6718L9.3714 12.7802L9.25524 12.8283L9.13754 12.884L9.01674 12.9475L8.89594 13.0172L8.77359 13.0946L8.64969 13.1798L8.52735 13.2696L8.405 13.3657L8.14946 13.584L7.93574 13.79L7.73131 14.0053L7.50674 14.2546L7.13815 14.665L7.30076 14.2748L7.71582 13.3177ZM10.2975 9.70604L10.4973 9.46135L10.6801 9.2182L10.8396 8.98434L10.9077 8.87283L10.965 8.76597L11.0456 8.58787L11.1137 8.40202L11.171 8.20688L11.2159 8.00555L11.25 7.80267L11.2748 7.59669L11.2887 7.39226L11.2918 7.18938L11.2825 6.99269L11.2655 6.8022L11.2422 6.6179L11.2097 6.44444L11.171 6.28028L11.1245 6.13005L11.0719 5.99532L11.0409 5.93492L11.0099 5.87761L10.773 6.08049L10.5314 6.30971L10.2882 6.56215L10.0497 6.83007L9.81898 7.11194L9.59906 7.4L9.39463 7.69116L9.20878 7.98077L9.13289 8.11551L9.06785 8.26109L9.01519 8.41441L8.97338 8.57393L8.94085 8.73964L8.92072 8.91L8.90988 9.08191V9.25692L8.91917 9.43192L8.9393 9.60693L8.96873 9.77883L9.00745 9.94609L9.05546 10.1087L9.11121 10.2651L9.17781 10.4154L9.25215 10.5547L9.28312 10.6151L9.3079 10.6724L9.32648 10.7266L9.34042 10.7778L9.37759 10.9559L9.38843 10.993L9.40392 11.0271L9.41321 11.0426L9.42405 11.0581L9.43644 11.072L9.45193 11.086L9.46742 11.0983L9.486 11.1107L9.52937 11.1324L9.58357 11.1494L9.64862 11.1649L10.0528 11.2331L10.4849 11.2888L10.7017 11.309L10.9155 11.3214L11.1199 11.3245L11.3135 11.3167L11.5117 11.2919L11.7177 11.2501L12.139 11.1293L12.568 10.9667L12.9877 10.7747L13.3857 10.5656L13.7512 10.3534L14.0687 10.149L14.3242 9.96778L13.2602 9.84078L12.6624 9.78967L12.348 9.77574L12.0244 9.77109L11.9005 9.77574L11.7719 9.78658L11.6403 9.80516L11.504 9.82994L11.3646 9.86246L11.2237 9.89963L11.0812 9.943L10.9372 9.99101L10.629 10.1087L10.3657 10.228L10.1086 10.3627L9.82053 10.5207L9.35126 10.7809L9.62074 10.468L10.2975 9.70604ZM13.2757 7.36593L13.4941 7.18473L13.697 7.00043L13.8782 6.81923L13.9556 6.7325L14.0253 6.64733L14.126 6.50329L14.2173 6.34842L14.2994 6.18426L14.3722 6.01235L14.4357 5.8358L14.4899 5.65615L14.5348 5.47495L14.5704 5.29375L14.5937 5.11564L14.6076 4.94064L14.6154 4.77183V4.60921L14.6061 4.45589L14.589 4.31186L14.5627 4.18022L14.5457 4.12137L14.5271 4.06406L14.2824 4.2019L14.0284 4.36297L13.7698 4.54417L13.5127 4.73931L13.2602 4.94838L13.0171 5.16675L12.7863 5.38977L12.5741 5.61433L12.4843 5.72119L12.4038 5.83889L12.331 5.96744L12.2675 6.10218L12.2133 6.24621L12.1684 6.39488L12.1312 6.54821L12.1018 6.70463L12.0832 6.8626L12.0724 7.02366L12.0708 7.18318L12.0786 7.34115L12.0956 7.49602L12.1219 7.6478L12.156 7.79338L12.2009 7.93276L12.2195 7.99161L12.2319 8.04891L12.2412 8.10002L12.2443 8.14958L12.2505 8.31684L12.2551 8.35246L12.2629 8.38499L12.269 8.40202L12.2768 8.41751L12.2845 8.433L12.2954 8.44694L12.3078 8.46242L12.3217 8.47636L12.3573 8.50269L12.4038 8.52902L12.4595 8.55535L12.8111 8.69163L13.1905 8.82327L13.3826 8.88213L13.5715 8.93323L13.7558 8.9735L13.9308 9.00293L14.1136 9.01686L14.3041 9.01841L14.7021 8.98899L15.1125 8.92239L15.5198 8.82947L15.9116 8.71641L16.2725 8.59406L16.59 8.47017L16.8486 8.35556L15.9147 8.04272L15.3866 7.88475L15.1063 7.81196L14.8151 7.74846L14.7036 7.72988L14.5875 7.71594L14.4651 7.7082L14.3397 7.7051L14.2096 7.70665L14.0764 7.71439L13.9417 7.72523L13.8038 7.74227L13.508 7.79028L13.2525 7.84913L13.0016 7.92037L12.7182 8.0102L12.2551 8.15578L12.5463 7.92502L13.2757 7.36593ZM16.4939 5.66389L16.6782 5.50902L16.8517 5.3526L17.0035 5.19927L17.0701 5.12494L17.1289 5.05369L17.2141 4.93135L17.2915 4.79971L17.3597 4.66187L17.4216 4.51629L17.4758 4.36606L17.5207 4.21274L17.5595 4.05942L17.5889 3.90609L17.609 3.75587L17.6214 3.60719L17.6292 3.46471V3.32687L17.6214 3.19678L17.6059 3.07443L17.5842 2.96447L17.5703 2.91337L17.5533 2.86536L17.3457 2.98151L17.1305 3.1178L16.9121 3.27112L16.6937 3.43683L16.48 3.61494L16.2725 3.79923L16.0773 3.98818L15.8977 4.17867L15.8218 4.27004L15.7537 4.36916L15.6917 4.47757L15.6375 4.59218L15.5926 4.71298L15.5523 4.83842L15.5214 4.96852L15.4981 5.10171L15.4811 5.23644L15.4733 5.37273L15.4718 5.50747L15.478 5.64221L15.4935 5.77385L15.5152 5.90239L15.5461 6.02629L15.5833 6.14399L15.5988 6.1951L15.6096 6.24156L15.6158 6.28647L15.6189 6.32674L15.6236 6.46922L15.6267 6.49865L15.6344 6.52807L15.6391 6.54046L15.6453 6.5544L15.653 6.56679L15.6623 6.57918L15.6731 6.59157L15.6855 6.60396L15.7149 6.62719L15.7537 6.64887L15.8017 6.67056L16.099 6.78671L16.4212 6.89822L16.5838 6.94778L16.7433 6.98959L16.8997 7.02521L17.0484 7.04999L17.2033 7.06238L17.3643 7.06393L17.7019 7.03915L18.0489 6.98185L18.3942 6.90286L18.7272 6.80684L19.0338 6.70308L19.3018 6.59777L19.5217 6.5002L18.7303 6.23537L18.2812 6.10218L18.0442 6.04023L17.798 5.98602L17.7035 5.97054L17.6044 5.95815L17.5006 5.95195L17.3938 5.94885L17.2838 5.95195L17.1707 5.95815L16.94 5.98138L16.6906 6.02164L16.5791 6.04642L16.4738 6.07275L16.2601 6.13315L16.02 6.20904L15.6282 6.33139L15.8745 6.13625L16.4939 5.66389Z" fill="url(#paint1_linear_9235_46)"/>
</g>
</g>
</g>
</g>
</g>
</g>
</g>
</g>
</g>
</g>
<defs>
<linearGradient id="paint0_linear_9235_46" x1="14.4805" y1="21.8665" x2="31.521" y2="21.8665" gradientUnits="userSpaceOnUse">
<stop stop-color="#A55906"/>
<stop offset="1" stop-color="#FECD51"/>
</linearGradient>
<linearGradient id="paint1_linear_9235_46" x1="1.56121" y1="24.4978" x2="44.4359" y2="21.4995" gradientUnits="userSpaceOnUse">
<stop stop-color="#A55906"/>
<stop offset="1" stop-color="#FECD51"/>
</linearGradient>
</defs>
</svg>
