<svg width="28" height="28" viewBox="0 0 28 28" fill="none" xmlns="http://www.w3.org/2000/svg">
<g id="4. Elements / Icons / Basic / Menu">
<path id="Shape" fill-rule="evenodd" clip-rule="evenodd" d="M2.5459 6.36367C2.5459 5.66076 3.11572 5.09094 3.81863 5.09094H24.1823C24.8852 5.09094 25.455 5.66076 25.455 6.36367C25.455 7.06657 24.8852 7.6364 24.1823 7.6364H3.81863C3.11572 7.6364 2.5459 7.06657 2.5459 6.36367ZM2.5459 21.6364C2.5459 20.9335 3.11572 20.3637 3.81863 20.3637H24.1823C24.8852 20.3637 25.455 20.9335 25.455 21.6364C25.455 22.3393 24.8852 22.9091 24.1823 22.9091H3.81863C3.11572 22.9091 2.5459 22.3393 2.5459 21.6364ZM3.81863 12.7273C3.11572 12.7273 2.5459 13.2971 2.5459 14C2.5459 14.7029 3.11572 15.2728 3.81863 15.2728H24.1823C24.8852 15.2728 25.455 14.7029 25.455 14C25.455 13.2971 24.8852 12.7273 24.1823 12.7273H3.81863Z" fill="#0D0D0D"/>
</g>
</svg>
