<svg width="51" height="9" viewBox="0 0 51 9" fill="none" xmlns="http://www.w3.org/2000/svg">
<path d="M5.18 4.32C5.52667 4.49333 5.79 4.72 5.97 5C6.15667 5.28 6.25 5.60333 6.25 5.97C6.25 6.40333 6.12667 6.78333 5.88 7.11C5.63333 7.43 5.28667 7.68 4.84 7.86C4.39333 8.03333 3.87667 8.12 3.29 8.12C2.70333 8.12 2.18667 8.03333 1.74 7.86C1.3 7.68 0.956667 7.43 0.71 7.11C0.47 6.78333 0.35 6.40333 0.35 5.97C0.35 5.60333 0.44 5.28 0.62 5C0.806667 4.72 1.07 4.49333 1.41 4.32C1.15 4.16 0.95 3.96 0.81 3.72C0.67 3.47333 0.6 3.19333 0.6 2.88C0.6 2.47333 0.713333 2.12 0.94 1.82C1.16667 1.52 1.48333 1.29 1.89 1.13C2.29667 0.963333 2.76333 0.88 3.29 0.88C3.82333 0.88 4.29333 0.963333 4.7 1.13C5.11333 1.29 5.43333 1.52 5.66 1.82C5.88667 2.12 6 2.47333 6 2.88C6 3.19333 5.93 3.47333 5.79 3.72C5.65 3.96 5.44667 4.16 5.18 4.32ZM3.29 2.07C2.96333 2.07 2.7 2.15 2.5 2.31C2.30667 2.46333 2.21 2.67667 2.21 2.95C2.21 3.21667 2.30667 3.42667 2.5 3.58C2.69333 3.73333 2.95667 3.81 3.29 3.81C3.62333 3.81 3.89 3.73333 4.09 3.58C4.29 3.42667 4.39 3.21667 4.39 2.95C4.39 2.67667 4.29 2.46333 4.09 2.31C3.89 2.15 3.62333 2.07 3.29 2.07ZM3.29 6.93C3.69667 6.93 4.01667 6.84 4.25 6.66C4.49 6.47333 4.61 6.22667 4.61 5.92C4.61 5.61333 4.49 5.37 4.25 5.19C4.01667 5.01 3.69667 4.92 3.29 4.92C2.89 4.92 2.57333 5.01 2.34 5.19C2.10667 5.37 1.99 5.61333 1.99 5.92C1.99 6.23333 2.10667 6.48 2.34 6.66C2.57333 6.84 2.89 6.93 3.29 6.93ZM10.8916 3.63C11.8782 3.63 12.6049 3.82667 13.0716 4.22C13.5449 4.61333 13.7816 5.14 13.7816 5.8C13.7816 6.22667 13.6749 6.61667 13.4616 6.97C13.2482 7.31667 12.9216 7.59667 12.4816 7.81C12.0482 8.01667 11.5116 8.12 10.8716 8.12C10.3782 8.12 9.89156 8.05667 9.41156 7.93C8.93823 7.79667 8.5349 7.61 8.20156 7.37L8.84156 6.13C9.10823 6.33 9.4149 6.48667 9.76156 6.6C10.1082 6.70667 10.4649 6.76 10.8316 6.76C11.2382 6.76 11.5582 6.68 11.7916 6.52C12.0249 6.36 12.1416 6.13667 12.1416 5.85C12.1416 5.55 12.0182 5.32333 11.7716 5.17C11.5316 5.01667 11.1116 4.94 10.5116 4.94H8.72156L9.08156 1H13.3516V2.3H10.4316L10.3216 3.63H10.8916ZM18.29 3.63C19.2767 3.63 20.0033 3.82667 20.47 4.22C20.9433 4.61333 21.18 5.14 21.18 5.8C21.18 6.22667 21.0733 6.61667 20.86 6.97C20.6467 7.31667 20.32 7.59667 19.88 7.81C19.4467 8.01667 18.91 8.12 18.27 8.12C17.7767 8.12 17.29 8.05667 16.81 7.93C16.3367 7.79667 15.9333 7.61 15.6 7.37L16.24 6.13C16.5067 6.33 16.8133 6.48667 17.16 6.6C17.5067 6.70667 17.8633 6.76 18.23 6.76C18.6367 6.76 18.9567 6.68 19.19 6.52C19.4233 6.36 19.54 6.13667 19.54 5.85C19.54 5.55 19.4167 5.32333 19.17 5.17C18.93 5.01667 18.51 4.94 17.91 4.94H16.12L16.48 1H20.75V2.3H17.83L17.72 3.63H18.29ZM34.4693 1L31.4893 6.54C31.2026 7.07333 30.856 7.47667 30.4493 7.75C30.0493 8.02333 29.6126 8.16 29.1393 8.16C28.7726 8.16 28.3926 8.08 27.9993 7.92L28.3893 6.69C28.6693 6.77667 28.9026 6.82 29.0893 6.82C29.2893 6.82 29.4693 6.77333 29.6293 6.68C29.7893 6.58 29.936 6.42667 30.0693 6.22L30.1293 6.14L27.3693 1H29.0993L30.9593 4.76L32.8793 1H34.4693ZM36.9448 8.08C36.6714 8.08 36.4414 7.98667 36.2548 7.8C36.0681 7.61333 35.9748 7.38 35.9748 7.1C35.9748 6.81333 36.0681 6.58333 36.2548 6.41C36.4414 6.23 36.6714 6.14 36.9448 6.14C37.2181 6.14 37.4481 6.23 37.6348 6.41C37.8214 6.58333 37.9148 6.81333 37.9148 7.1C37.9148 7.38 37.8214 7.61333 37.6348 7.8C37.4481 7.98667 37.2181 8.08 36.9448 8.08ZM46.042 6.7V8H40.622V1H45.912V2.3H42.232V3.82H45.482V5.08H42.232V6.7H46.042ZM49.3881 8.08C49.1148 8.08 48.8848 7.98667 48.6981 7.8C48.5115 7.61333 48.4181 7.38 48.4181 7.1C48.4181 6.81333 48.5115 6.58333 48.6981 6.41C48.8848 6.23 49.1148 6.14 49.3881 6.14C49.6615 6.14 49.8915 6.23 50.0781 6.41C50.2648 6.58333 50.3581 6.81333 50.3581 7.1C50.3581 7.38 50.2648 7.61333 50.0781 7.8C49.8915 7.98667 49.6615 8.08 49.3881 8.08Z" fill="black"/>
</svg>
