<svg width="28" height="28" viewBox="0 0 28 28" fill="none" xmlns="http://www.w3.org/2000/svg">
<g id="4. Elements / Icons / Basic / Menu">
<path id="Shape" fill-rule="evenodd" clip-rule="evenodd" d="M2.54541 6.36367C2.54541 5.66076 3.11523 5.09094 3.81814 5.09094H24.1818C24.8847 5.09094 25.4545 5.66076 25.4545 6.36367C25.4545 7.06657 24.8847 7.6364 24.1818 7.6364H3.81814C3.11523 7.6364 2.54541 7.06657 2.54541 6.36367ZM2.54541 21.6364C2.54541 20.9335 3.11523 20.3637 3.81814 20.3637H24.1818C24.8847 20.3637 25.4545 20.9335 25.4545 21.6364C25.4545 22.3393 24.8847 22.9091 24.1818 22.9091H3.81814C3.11523 22.9091 2.54541 22.3393 2.54541 21.6364ZM3.81814 12.7273C3.11523 12.7273 2.54541 13.2971 2.54541 14C2.54541 14.7029 3.11523 15.2728 3.81814 15.2728H24.1818C24.8847 15.2728 25.4545 14.7029 25.4545 14C25.4545 13.2971 24.8847 12.7273 24.1818 12.7273H3.81814Z" fill="#0D0D0D"/>
</g>
</svg>
